PathFileType	4	(X/Y/Z)	/Users/niels/Desktop/University/Third Semester/Perception and Action/Exam/Gymnastics Motion Tracking/Code for Gym Tracking/Analyzed Data/kraft_good_id2_1_Sports2D/kraft_good_id2_1_Sports2D_px_person00.trc
DataRate	CameraRate	NumFrames	NumMarkers	Units	OrigDataRate	OrigDataStartFrame	OrigNumFrames
143.44186046511626	143.44186046511626	8	22	m	143.44186046511626	193	258
Frame#	Time	Hip			RHip			RKnee			RAnkle			RBigToe			RSmallToe			RHeel			LHip			LKnee			LAnkle			LBigToe			LSmallToe			LHeel			Neck			Head			Nose			RShoulder			RElbow			RWrist			LShoulder			LElbow			LWrist		
		X1	Y1	Z1	X2	Y2	Z2	X3	Y3	Z3	X4	Y4	Z4	X5	Y5	Z5	X6	Y6	Z6	X7	Y7	Z7	X8	Y8	Z8	X9	Y9	Z9	X10	Y10	Z10	X11	Y11	Z11	X12	Y12	Z12	X13	Y13	Z13	X14	Y14	Z14	X15	Y15	Z15	X16	Y16	Z16	X17	Y17	Z17	X18	Y18	Z18	X19	Y19	Z19	X20	Y20	Z20	X21	Y21	Z21	X22	Y22	Z22
193	1.3454928664072634	0.9267399404327445	-0.3797150735704195	0.0	0.9358948171521615	-0.3818101107533407	0.0	1.0057516834385796	-0.4307823584971229	0.0	1.052795106032327	-0.49358834164498405	0.0	1.0828137163117035	-0.4997464816340485	0.0	1.0806227644179953	-0.5042263704729842	0.0	1.0567832790871936	-0.5033791251704585	0.0	0.9312994971020259	-0.38409159572734963	0.0	1.002118265465078	-0.43050562300606815	0.0	1.046517893344431	-0.49134540900295565	0.0	1.0790151457544743	-0.5007606829579163	0.0	1.08117480472928	-0.49950152264365594	0.0	1.0515439782819511	-0.49840838496890877	0.0	0.8316181838725264	-0.35949567208517824	0.0	0.784224193757442	-0.3656408846727896	0.0	0.8090309466625416	-0.35018911158248267	0.0	0.8385443075667229	-0.3586797991730749	0.0	0.7885646015554293	-0.35351607640804433	0.0	0.747073471553373	-0.3575777250517582	0.0	0.8329998319130573	-0.35816048328158956	0.0	0.789781665435171	-0.3541557615483611	0.0	0.7488657621867898	-0.35821111573347825	0.0
194	1.3524643320363166	0.9314998868873253	-0.3838456341686739	0.0	0.9406184248213723	-0.38603241254641035	0.0	1.0090751359041814	-0.43747686208636116	0.0	1.0539424750995106	-0.5021483528867827	0.0	1.0836966188534136	-0.5087248424372968	0.0	1.0814358626342744	-0.5131069670410804	0.0	1.0575774230465422	-0.5121825377491137	0.0	0.9358996689792017	-0.38818860530284965	0.0	1.0054804677161657	-0.436838651543139	0.0	1.0479305251977267	-0.4993924167576238	0.0	1.0801783955484368	-0.5089051207546833	0.0	1.0821496812870763	-0.5079059220650678	0.0	1.0522394262875872	-0.5067655585573105	0.0	0.8370171932840408	-0.3591755724048592	0.0	0.7888859450548789	-0.36186192878574874	0.0	0.814473068302041	-0.3480557767118445	0.0	0.8442403571555392	-0.35891456738527766	0.0	0.7946923686342907	-0.35029176244457993	0.0	0.752872438024789	-0.3515007418739494	0.0	0.8383460817473372	-0.3582946340530257	0.0	0.7953933117725098	-0.35076545622807725	0.0	0.754246981425277	-0.35227553350558066	0.0
195	1.3594357976653697	0.9361372478491181	-0.3880112326165172	0.0	0.9451845228427529	-0.3902914225313982	0.0	1.0122295172708082	-0.4440974418909955	0.0	1.0549505981713898	-0.5104743926272955	0.0	1.0844023003682381	-0.5173702110974675	0.0	1.0820852527351337	-0.5216598009685722	0.0	1.05824803350726	-0.5207295637175302	0.0	0.940369249997125	-0.3923156971828772	0.0	1.0086649108030148	-0.4431547818369236	0.0	1.0491857223519996	-0.5072827353692089	0.0	1.0811344967399825	-0.5167903427488264	0.0	1.0828647016316455	-0.5160905352594738	0.0	1.0527749282613559	-0.51494422445373	0.0	0.842454053478523	-0.3589742592959374	0.0	0.7938000188542037	-0.3582191171627688	0.0	0.8201039554897737	-0.34606837982974464	0.0	0.8499275431444147	-0.35927273794182285	0.0	0.8010358726940361	-0.34724053603741106	0.0	0.7589866430626919	-0.3455937458603938	0.0	0.8437198127635528	-0.35853307121455436	0.0	0.8012058268002613	-0.34754138389063605	0.0	0.7599385687632737	-0.3465020252012969	0.0
196	1.3664072632944229	0.9406582515483972	-0.39220035395802355	0.0	0.9495992532238626	-0.39457490046250465	0.0	1.0152211937594917	-0.45063084540763926	0.0	1.0558379737766281	-0.5185562853299529	0.0	1.0849499786246768	-0.5256727960868365	0.0	1.0825905086851675	-0.5298778744997535	0.0	1.0588139544024089	-0.5290065098690927	0.0	0.9447114295751933	-0.3964578942107103	0.0	1.0116752041636863	-0.44943319354151134	0.0	1.0502965555355122	-0.5149965117947276	0.0	1.081894289755068	-0.5243962319250955	0.0	1.0833293727306181	-0.5240338696735994	0.0	1.05316793628628	-0.5229188137766259	0.0	0.8479260516466268	-0.35888056051827505	0.0	0.7989661373862614	-0.35472020334371523	0.0	0.8259179509107106	-0.3442270249306136	0.0	0.8555984249704263	-0.3597363089155621	0.0	0.8075761094246692	-0.34436960890035145	0.0	0.7654114605713508	-0.3398739432150262	0.0	0.8491164970736699	-0.35885855899838626	0.0	0.8072046429850266	-0.3444928979233243	0.0	0.765932237423155	-0.3409087289080995	0.0
197	1.373378728923476	0.9450704084736501	-0.39640242790332003	0.0	0.9538709419974463	-0.39887074372789066	0.0	1.0180579987088085	-0.45706393476047985	0.0	1.0566226513269803	-0.5263845940040827	0.0	1.0853586600814054	-0.5336247815975245	0.0	1.0829702130551504	-0.5377551021699247	0.0	1.0592935261798677	-0.5370011639115145	0.0	0.948930825011294	-0.4006009781090841	0.0	1.0145167307853222	-0.45565354930273655	0.0	1.0512768115330462	-0.5225148869420094	0.0	1.0824695452433797	-0.5317039626362478	0.0	1.0835545113549512	-0.5317146683877637	0.0	1.0534366855290975	-0.5306651369065362	0.0	0.8534332508824718	-0.35888377642633945	0.0	0.8043855601290295	-0.35137348317946204	0.0	0.831911318389928	-0.3425308354398636	0.0	0.8612495653346136	-0.36028667074046195	0.0	0.8142932088096128	-0.34168374434980137	0.0	0.7721434787892136	-0.33435685897415124	0.0	0.8545341131090568	-0.3592545982615471	0.0	0.8133750348982556	-0.34162797461129113	0.0	0.7722204943252902	-0.3355126852742096	0.0
198	1.3803501945525292	0.9493811232783975	-0.40060691565849804	0.0	0.9580084752377503	-0.40316591005581376	0.0	1.0207491493937118	-0.4633834922411415	0.0	1.0573220024935397	-0.5339508376301171	0.0	1.0856473705808707	-0.5412206541077419	0.0	1.0832424145893658	-0.5452866581956666	0.0	1.059703872487512	-0.5447032937660478	0.0	0.9530321974412159	-0.40473095133004056	0.0	1.017196631667556	-0.4617963156466946	0.0	1.0521403666986808	-0.5298200930377773	0.0	1.0828730618994944	-0.5386963357573207	0.0	1.0835524565173886	-0.5391120919224894	0.0	1.053598963906091	-0.5381610542119273	0.0	0.8589763066158612	-0.35897384577665836	0.0	0.8100571693218493	-0.3481863411656512	0.0	0.8380790845512863	-0.3409781378596555	0.0	0.8668797301811778	-0.360905689914284	0.0	0.8211666945299508	-0.3391851486708559	0.0	0.7791759464463615	-0.3290557896109793	0.0	0.8599710800869322	-0.359706007278224	0.0	0.8197013904921304	-0.3389524744354351	0.0	0.7787928341225422	-0.330329041434073	0.0
199	1.3873216601815825	0.9535970611282124	-0.4048026954842085	0.0	0.9620206583060644	-0.4074460984737498	0.0	1.023305011046934	-0.46957610891080775	0.0	1.057952556360631	-0.5412476415699307	0.0	1.0858354429842232	-0.5484572752549518	0.0	1.0834250751471863	-0.5524692650902019	0.0	1.0600604517926286	-0.5521047995807703	0.0	0.9570202200798256	-0.4088337506157755	0.0	1.0197236780913743	-0.4678428112681991	0.0	1.0529008401317628	-0.5368956376920777	0.0	1.0831191624989134	-0.5453583161945977	0.0	1.0833376847573148	-0.5462060566759989	0.0	1.0536712710333667	-0.5453870506463325	0.0	0.8645551094392373	-0.35914120957069023	0.0	0.8159754237886868	-0.34516430272645754	0.0	0.8444128128037832	-0.33956667228842674	0.0	0.8724888347277997	-0.36157641078744357	0.0	0.8281762034697691	-0.33687343806075304	0.0	0.7864978801138881	-0.323981362781178	0.0	0.865425290377635	-0.3601989638096202	0.0	0.8261670340702548	-0.33646968634123	0.0	0.7856342185276066	-0.32537059765851073	0.0
200	1.3942931258106357	0.9577242059844064	-0.4089778081332603	0.0	0.9659165113653256	-0.41169623817134404	0.0	1.0257366835531578	-0.4756281291615383	0.0	1.058529852365702	-0.5482689339266248	0.0	1.0859425901325483	-0.5553337489261237	0.0	1.083536203370183	-0.5593012982253406	0.0	1.0603769877063123	-0.559199566758487	0.0	0.9608998256333762	-0.41289533323636857	0.0	1.0221079067158447	-0.47377512683676715	0.0	1.0535715116204987	-0.5437268172974484	0.0	1.0832242414468647	-0.5516775465283619	0.0	1.0829277423802035	-0.552978089218162	0.0	1.0536686507951272	-0.5523267855251275	0.0	0.8701680957642385	-0.35937669327250016	0.0	0.8221301821771522	-0.3423110119250146	0.0	0.8508997721861459	-0.33829367345973727	0.0	0.8780775869804047	-0.3622832823535397	0.0	0.8353023549656563	-0.3347455178283485	0.0	0.794094647591348	-0.3191410957353501	0.0	0.8708936688900701	-0.3607209464899694	0.0	0.8327544540158414	-0.3341801562953024	0.0	0.7927247987215628	-0.32064741691984855	0.0
